<?xml version="1.0" encoding="UTF-8" standalone="no"?>
<!-- Created with Inkscape (http://www.inkscape.org/) -->

<svg xmlns="http://www.w3.org/2000/svg"
   height="548"
   width="718"
   viewBox="0 0 718 548"
   version="1.1">
  <defs>
    <pattern
       id="shadow_pattern"
       patternTransform="translate(0,0) rotate(-35)"
       height="1"
       width="8.4"
       patternUnits="userSpaceOnUse">
      <rect
         height="2"
         width="1"
         y="-0.5"
         x="0"
         style="fill:black;stroke:none" />
    </pattern>
    <pattern
       id="large_pattern"
       patternTransform="translate(0,0) rotate(-35.54)"
       height="1"
       width="20"
       patternUnits="userSpaceOnUse">
      <rect
         height="2"
         width="3"
         y="-0.5"
         x="0"
         style="fill:black;stroke:none" />
    </pattern>
    <style type="text/css"><![CDATA[
.shadow_b {
  fill: url(#large_pattern);
  fill-rule: evenodd;
}
.shadow_b, .outer_b {
  stroke: #000;
  stroke-width: 7px;
  stroke-linejoin: round;
  stroke-opacity: 1;
}
.inner_b {
  stroke: #000;
  stroke-width: 3px;
  stroke-linejoin: round;
  stroke-opacity: 1;
}
.inner_b, .outer_b {
  fill: none;
}

.shadow_s {
  fill: url(#shadow_pattern);
  fill-rule: evenodd;
}
.shadow_s, .outer_s {
  stroke: #000;
  stroke-width: 2px;
  stroke-linejoin: round;
  stroke-opacity: 1;
}
.inner_s {
  stroke: #000;
  stroke-width: 1px;
  stroke-linejoin: round;
  stroke-opacity: 1;
}
.inner_s {
  fill: none;
}
.outer_s {
  fill: #fff;
}

.arrow {
  stroke: #000;
  stroke-width: 2px;
  stroke-linejoin: round;
  stroke-opacity: 1;
  fill: none;
}
]]></style>
  </defs>
  <g>
    <path class="inner_b" d="M 20,137 534,137 534,339 20,339 Z" />
    <path class="outer_b" d="M 550,355 4,355 4,121 550,121 Z" />
    <path class="shadow_b" d="M 4,355 550,355 570,383 24,383 Z" />
    <path class="shadow_b" d="M 550,121 550,355 570,383 570,150 Z" />
    <path class="shadow_s" d="M 416,472 679,472 c 0,0 37,0 37,37 0,37 -37,37 -37,37 L 416,546 c 0,0 -37,0 -37,-37 0,-37 37,-37 37,-37 Z M 409,462 672,462 c 0,0 37,0 37,37 0,37 -37,37 -37,37 L 409,536 c 0,0 -37,0 -37,-37 0,-37 37,-37 37,-37 Z" />
    <path class="outer_s" d="M 409,462 672,462 c 0,0 37,0 37,37 0,37 -37,37 -37,37 L 409,536 c 0,0 -37,0 -37,-37 0,-37 37,-37 37,-37 Z" />
    <path class="inner_s" d="M 409,467 672,467 c 0,0 32,0 32,32 0,32 -32,32 -32,32 L 409,531 c 0,0 -32,0 -32,-32 0,-32 32,-32 32,-32 Z" />
    <path class="arrow" d="M 267,403 267,499 355,499 m -10,-5 l 10,5 -10,5" />
    <path class="arrow" d="M 166,1 267,1 267,95 m -5,-10 l 5,10 5,-10" />
  </g>
</svg>
